<svg xmlns="http://www.w3.org/2000/svg" viewBox="0 0 500 500"><defs><style>.cls-1{fill:#e6e7e8;}.cls-2{fill:#1b75bc;}.cls-3{fill:#f1f2f2;}.cls-4{fill:#27aae1;}.cls-5{fill:#b92025;}.cls-6{fill:#ed1c24;}.cls-7{fill:#fbb040;}.cls-8{fill:#f7941d;}</style></defs><title>logo</title><g id="Layer_2" data-name="Layer 2"><g id="Layer_1-2" data-name="Layer 1"><polygon class="cls-1" points="250 0 125 0 250 175 250 0"/><path class="cls-2" d="M0,125V394.74A105.26,105.26,0,0,0,105.26,500H250V425Z"/><polygon class="cls-3" points="250 0 375 0 250 175 250 0"/><path class="cls-4" d="M500,125V394.74A105.26,105.26,0,0,1,394.74,500H250V425Z"/><polygon class="cls-5" points="250 0 225 0 250 35 250 0"/><polygon class="cls-6" points="250 0 275 0 250 35 250 0"/><polygon class="cls-5" points="250 15 225 50 236.84 156.58 250 175 250 15"/><polygon class="cls-6" points="263.16 156.58 275 50 250 15 250 175 263.16 156.58"/><path class="cls-7" d="M375,0h0L263.16,156.58,250,175V425L500,125h0A125,125,0,0,0,375,0Z"/><path class="cls-8" d="M250,175l-13.16-18.42L125,0h0A125,125,0,0,0,0,125H0L250,425V175Z"/></g></g></svg>