<svg version="1" xmlns="http://www.w3.org/2000/svg" width="2666.667" height="2666.667" viewBox="0 0 2000.000000 2000.000000"><path d="M0 1000v1000h2000V0h-294.5l-315.2 315.2c-207 207-315.3 314.6-315.3 313.3 0-1 5.6-97.1 12.6-213.5 6.9-116.3 12.3-212.6 12.1-214-.2-1.4-16.2-24.7-35.6-51.7l-35.2-49.3 35.6-49.7L1100 .5l-50-.3c-27.5-.1-72.5-.1-100.1 0l-50 .3 35.5 49.8 35.6 49.8-35.2 49.2c-23.7 33.1-35.3 50.2-35.5 52.2-.2 1.6 5.3 98.1 12.2 214.2 6.9 116.2 12.5 212.1 12.5 213 0 1.1-132.1-130.3-315.3-313.5L294.5 0H0v1000z"/></svg>